<svg xmlns="http://www.w3.org/2000/svg" xmlns:xlink="http://www.w3.org/1999/xlink" width="500" zoomAndPan="magnify" viewBox="0 0 375 374.999991" height="500" preserveAspectRatio="xMidYMid meet" version="1.0"><defs><clipPath id="49adb2fe7c"><path d="M 1.3125 9 L 364 9 L 364 220.910156 L 1.3125 220.910156 Z M 1.3125 9 " clip-rule="nonzero"/></clipPath><clipPath id="b96556a759"><path d="M 146 148 L 219 148 L 219 220.910156 L 146 220.910156 Z M 146 148 " clip-rule="nonzero"/></clipPath><clipPath id="88744ce366"><path d="M 290.515625 278.117188 L 363.675781 278.117188 L 363.675781 322.601562 L 290.515625 322.601562 Z M 290.515625 278.117188 " clip-rule="nonzero"/></clipPath><clipPath id="cdd6427027"><path d="M 290.550781 278.117188 C 290.550781 302.347656 307.199219 322.601562 327.113281 322.601562 C 347.027344 322.601562 363.675781 302.347656 363.675781 278.117188 Z M 290.550781 278.117188 " clip-rule="nonzero"/></clipPath><clipPath id="6619b9368a"><path d="M 0.515625 0.117188 L 73.675781 0.117188 L 73.675781 44.601562 L 0.515625 44.601562 Z M 0.515625 0.117188 " clip-rule="nonzero"/></clipPath><clipPath id="6aead0fbaa"><path d="M 0.550781 0.117188 C 0.550781 24.347656 17.199219 44.601562 37.113281 44.601562 C 57.027344 44.601562 73.675781 24.347656 73.675781 0.117188 Z M 0.550781 0.117188 " clip-rule="nonzero"/></clipPath><clipPath id="27963605be"><rect x="0" width="74" y="0" height="45"/></clipPath><clipPath id="57e0ced446"><path d="M 290.5625 215.066406 L 363.664062 215.066406 L 363.664062 281.347656 L 290.5625 281.347656 Z M 290.5625 215.066406 " clip-rule="nonzero"/></clipPath><clipPath id="b5006bb818"><path d="M 0.5625 0.0664062 L 73.664062 0.0664062 L 73.664062 66.347656 L 0.5625 66.347656 Z M 0.5625 0.0664062 " clip-rule="nonzero"/></clipPath><clipPath id="0b1933f2d2"><rect x="0" width="74" y="0" height="67"/></clipPath><clipPath id="8e628d310a"><path d="M 145.9375 113.742188 L 219.648438 113.742188 L 219.648438 220.722656 L 145.9375 220.722656 Z M 145.9375 113.742188 " clip-rule="nonzero"/></clipPath><clipPath id="944752c940"><path d="M 0.9375 0.742188 L 74.648438 0.742188 L 74.648438 107.722656 L 0.9375 107.722656 Z M 0.9375 0.742188 " clip-rule="nonzero"/></clipPath><clipPath id="98793667dd"><rect x="0" width="75" y="0" height="108"/></clipPath><clipPath id="1a113bf91b"><path d="M 115.074219 0 L 251.808594 0 L 251.808594 3.257812 L 115.074219 3.257812 Z M 115.074219 0 " clip-rule="nonzero"/></clipPath><clipPath id="7ab04526fb"><path d="M 183.441406 -133.476562 C 145.683594 -133.476562 115.074219 -102.867188 115.074219 -65.109375 C 115.074219 -27.351562 145.683594 3.257812 183.441406 3.257812 C 221.199219 3.257812 251.808594 -27.351562 251.808594 -65.109375 C 251.808594 -102.867188 221.199219 -133.476562 183.441406 -133.476562 Z M 183.441406 -133.476562 " clip-rule="nonzero"/></clipPath><clipPath id="f177d8d394"><path d="M 0.0742188 0 L 136.808594 0 L 136.808594 3.257812 L 0.0742188 3.257812 Z M 0.0742188 0 " clip-rule="nonzero"/></clipPath><clipPath id="066064c571"><path d="M 68.441406 -133.476562 C 30.683594 -133.476562 0.0742188 -102.867188 0.0742188 -65.109375 C 0.0742188 -27.351562 30.683594 3.257812 68.441406 3.257812 C 106.199219 3.257812 136.808594 -27.351562 136.808594 -65.109375 C 136.808594 -102.867188 106.199219 -133.476562 68.441406 -133.476562 Z M 68.441406 -133.476562 " clip-rule="nonzero"/></clipPath><clipPath id="2d9f6f3911"><rect x="0" width="137" y="0" height="4"/></clipPath><clipPath id="e85171155d"><path d="M 145.742188 278.117188 L 219.597656 278.117188 L 219.597656 322.601562 L 145.742188 322.601562 Z M 145.742188 278.117188 " clip-rule="nonzero"/></clipPath><clipPath id="d475b08a29"><path d="M 145.910156 278.117188 C 145.910156 302.347656 162.683594 322.601562 182.753906 322.601562 C 202.820312 322.601562 219.597656 302.347656 219.597656 278.117188 Z M 145.910156 278.117188 " clip-rule="nonzero"/></clipPath><clipPath id="acd39382b8"><path d="M 0.742188 0.117188 L 74.597656 0.117188 L 74.597656 44.601562 L 0.742188 44.601562 Z M 0.742188 0.117188 " clip-rule="nonzero"/></clipPath><clipPath id="15290a03e4"><path d="M 0.910156 0.117188 C 0.910156 24.347656 17.683594 44.601562 37.753906 44.601562 C 57.820312 44.601562 74.597656 24.347656 74.597656 0.117188 Z M 0.910156 0.117188 " clip-rule="nonzero"/></clipPath><clipPath id="2d799fdfec"><rect x="0" width="75" y="0" height="45"/></clipPath><clipPath id="7b8a1c760d"><path d="M 145.917969 215.066406 L 219.625 215.066406 L 219.625 281.347656 L 145.917969 281.347656 Z M 145.917969 215.066406 " clip-rule="nonzero"/></clipPath><clipPath id="75f0fa3dea"><path d="M 0.917969 0.0664062 L 74.625 0.0664062 L 74.625 66.347656 L 0.917969 66.347656 Z M 0.917969 0.0664062 " clip-rule="nonzero"/></clipPath><clipPath id="ab330daeda"><rect x="0" width="75" y="0" height="67"/></clipPath><clipPath id="09f99c274b"><path d="M 159.011719 137.820312 L 207.871094 137.820312 L 207.871094 292.410156 L 159.011719 292.410156 Z M 159.011719 137.820312 " clip-rule="nonzero"/></clipPath><clipPath id="710a016eb2"><path d="M 183.441406 137.820312 C 169.949219 137.820312 159.011719 172.40625 159.011719 215.066406 C 159.011719 257.726562 169.949219 292.3125 183.441406 292.3125 C 196.933594 292.3125 207.871094 257.726562 207.871094 215.066406 C 207.871094 172.40625 196.933594 137.820312 183.441406 137.820312 Z M 183.441406 137.820312 " clip-rule="nonzero"/></clipPath><clipPath id="aa3878f589"><path d="M 0.0117188 0.820312 L 48.871094 0.820312 L 48.871094 155.320312 L 0.0117188 155.320312 Z M 0.0117188 0.820312 " clip-rule="nonzero"/></clipPath><clipPath id="f83a63e314"><path d="M 24.441406 0.820312 C 10.949219 0.820312 0.0117188 35.40625 0.0117188 78.066406 C 0.0117188 120.726562 10.949219 155.3125 24.441406 155.3125 C 37.933594 155.3125 48.871094 120.726562 48.871094 78.066406 C 48.871094 35.40625 37.933594 0.820312 24.441406 0.820312 Z M 24.441406 0.820312 " clip-rule="nonzero"/></clipPath><clipPath id="2d446f0f86"><rect x="0" width="49" y="0" height="156"/></clipPath><clipPath id="e2de85829b"><path d="M 1.265625 278.117188 L 74.425781 278.117188 L 74.425781 322.601562 L 1.265625 322.601562 Z M 1.265625 278.117188 " clip-rule="nonzero"/></clipPath><clipPath id="97c85ad2f6"><path d="M 1.300781 278.117188 C 1.300781 302.347656 17.945312 322.601562 37.863281 322.601562 C 57.777344 322.601562 74.425781 302.347656 74.425781 278.117188 Z M 1.300781 278.117188 " clip-rule="nonzero"/></clipPath><clipPath id="a9dc0ecbdf"><path d="M 0.265625 0.117188 L 73.425781 0.117188 L 73.425781 44.601562 L 0.265625 44.601562 Z M 0.265625 0.117188 " clip-rule="nonzero"/></clipPath><clipPath id="f337eed034"><path d="M 0.300781 0.117188 C 0.300781 24.347656 16.945312 44.601562 36.863281 44.601562 C 56.777344 44.601562 73.425781 24.347656 73.425781 0.117188 Z M 0.300781 0.117188 " clip-rule="nonzero"/></clipPath><clipPath id="cc82a50b2a"><rect x="0" width="74" y="0" height="45"/></clipPath><clipPath id="9fbfda7439"><path d="M 1.3125 215.066406 L 74.414062 215.066406 L 74.414062 281.347656 L 1.3125 281.347656 Z M 1.3125 215.066406 " clip-rule="nonzero"/></clipPath><clipPath id="117536c6d3"><path d="M 0.3125 0.0664062 L 73.414062 0.0664062 L 73.414062 66.347656 L 0.3125 66.347656 Z M 0.3125 0.0664062 " clip-rule="nonzero"/></clipPath><clipPath id="db6494f54c"><rect x="0" width="74" y="0" height="67"/></clipPath><clipPath id="13ed264848"><rect x="0" width="365" y="0" height="323"/></clipPath></defs><rect x="-37.5" width="450" fill="#ffffff" y="-37.499999" height="449.999989" fill-opacity="1"/><rect x="-37.5" width="450" fill="#000000" y="-37.499999" height="449.999989" fill-opacity="1"/><g transform="matrix(1, 0, 0, 1, 5, 0)"><g clip-path="url(#13ed264848)"><g clip-path="url(#49adb2fe7c)"><path fill="#e2cbf6" d="M 363.675781 114.617188 L 363.675781 220.40625 L 290.742188 220.40625 L 290.742188 127.171875 C 290.742188 101.640625 281.429688 80.503906 254.640625 80.503906 C 227.855469 80.503906 218.960938 101.640625 218.960938 127.171875 L 146.027344 127.171875 C 146.027344 101.640625 137.132812 80.503906 110.34375 80.503906 C 83.558594 80.503906 74.246094 101.640625 74.246094 127.171875 L 74.246094 220.40625 L 1.3125 220.40625 L 1.3125 114.617188 C 1.3125 58.320312 35.007812 9.664062 104.695312 9.664062 C 142.78125 9.664062 170.40625 24.625 182.964844 49.425781 C 196.359375 24.730469 225.550781 9.664062 260.398438 9.664062 C 330.085938 9.558594 363.675781 58.214844 363.675781 114.617188 Z M 363.675781 114.617188 " fill-opacity="1" fill-rule="nonzero"/></g><g clip-path="url(#b96556a759)"><path fill="#e2cbf6" d="M 146.132812 148.097656 L 218.855469 148.097656 L 218.855469 220.300781 L 146.132812 220.300781 Z M 146.132812 148.097656 " fill-opacity="1" fill-rule="nonzero"/></g><g clip-path="url(#88744ce366)"><g clip-path="url(#cdd6427027)"><g transform="matrix(1, 0, 0, 1, 290, 278)"><g clip-path="url(#27963605be)"><g clip-path="url(#6619b9368a)"><g clip-path="url(#6aead0fbaa)"><path fill="#ff5757" d="M 73.675781 44.601562 L 0.515625 44.601562 L 0.515625 0.117188 L 73.675781 0.117188 Z M 73.675781 44.601562 " fill-opacity="1" fill-rule="nonzero"/></g></g></g></g></g></g><g clip-path="url(#57e0ced446)"><g transform="matrix(1, 0, 0, 1, 290, 215)"><g clip-path="url(#0b1933f2d2)"><g clip-path="url(#b5006bb818)"><path fill="#ff5757" d="M 0.5625 0.0664062 L 73.578125 0.0664062 L 73.578125 66.347656 L 0.5625 66.347656 Z M 0.5625 0.0664062 " fill-opacity="1" fill-rule="nonzero"/></g></g></g></g><g clip-path="url(#8e628d310a)"><g transform="matrix(1, 0, 0, 1, 145, 113)"><g clip-path="url(#98793667dd)"><g clip-path="url(#944752c940)"><path fill="#e2cbf6" d="M 0.9375 0.742188 L 74.648438 0.742188 L 74.648438 107.851562 L 0.9375 107.851562 Z M 0.9375 0.742188 " fill-opacity="1" fill-rule="nonzero"/></g></g></g></g><g clip-path="url(#1a113bf91b)"><g clip-path="url(#7ab04526fb)"><g transform="matrix(1, 0, 0, 1, 115, 0)"><g clip-path="url(#2d9f6f3911)"><g clip-path="url(#f177d8d394)"><g clip-path="url(#066064c571)"><path fill="#000000" d="M 0.0742188 -133.476562 L 136.808594 -133.476562 L 136.808594 3.257812 L 0.0742188 3.257812 Z M 0.0742188 -133.476562 " fill-opacity="1" fill-rule="nonzero"/></g></g></g></g></g></g><g clip-path="url(#e85171155d)"><g clip-path="url(#d475b08a29)"><g transform="matrix(1, 0, 0, 1, 145, 278)"><g clip-path="url(#2d799fdfec)"><g clip-path="url(#acd39382b8)"><g clip-path="url(#15290a03e4)"><path fill="#ff5757" d="M 74.597656 44.601562 L 0.917969 44.601562 L 0.917969 0.117188 L 74.597656 0.117188 Z M 74.597656 44.601562 " fill-opacity="1" fill-rule="nonzero"/></g></g></g></g></g></g><g clip-path="url(#7b8a1c760d)"><g transform="matrix(1, 0, 0, 1, 145, 215)"><g clip-path="url(#ab330daeda)"><g clip-path="url(#75f0fa3dea)"><path fill="#ff5757" d="M 0.917969 0.0664062 L 74.707031 0.0664062 L 74.707031 66.347656 L 0.917969 66.347656 Z M 0.917969 0.0664062 " fill-opacity="1" fill-rule="nonzero"/></g></g></g></g><g clip-path="url(#09f99c274b)"><g clip-path="url(#710a016eb2)"><g transform="matrix(1, 0, 0, 1, 159, 137)"><g clip-path="url(#2d446f0f86)"><g clip-path="url(#aa3878f589)"><g clip-path="url(#f83a63e314)"><path fill="#000000" d="M 0.0117188 0.820312 L 48.871094 0.820312 L 48.871094 155.21875 L 0.0117188 155.21875 Z M 0.0117188 0.820312 " fill-opacity="1" fill-rule="nonzero"/></g></g></g></g></g></g><g clip-path="url(#e2de85829b)"><g clip-path="url(#97c85ad2f6)"><g transform="matrix(1, 0, 0, 1, 1, 278)"><g clip-path="url(#cc82a50b2a)"><g clip-path="url(#a9dc0ecbdf)"><g clip-path="url(#f337eed034)"><path fill="#ff5757" d="M 73.425781 44.601562 L 0.265625 44.601562 L 0.265625 0.117188 L 73.425781 0.117188 Z M 73.425781 44.601562 " fill-opacity="1" fill-rule="nonzero"/></g></g></g></g></g></g><g clip-path="url(#9fbfda7439)"><g transform="matrix(1, 0, 0, 1, 1, 215)"><g clip-path="url(#db6494f54c)"><g clip-path="url(#117536c6d3)"><path fill="#ff5757" d="M 0.3125 0.0664062 L 73.328125 0.0664062 L 73.328125 66.347656 L 0.3125 66.347656 Z M 0.3125 0.0664062 " fill-opacity="1" fill-rule="nonzero"/></g></g></g></g></g></g></svg>