<svg xmlns="http://www.w3.org/2000/svg" xmlns:xlink="http://www.w3.org/1999/xlink" width="500" zoomAndPan="magnify" viewBox="0 0 375 374.999991" height="500" preserveAspectRatio="xMidYMid meet" version="1.0"><defs><clipPath id="6b6807314f"><path d="M 161 44.542969 L 214 44.542969 L 214 97 L 161 97 Z M 161 44.542969 " clip-rule="nonzero"/></clipPath><clipPath id="0a9aca83d5"><path d="M 79.230469 103 L 295.980469 103 L 295.980469 229.792969 L 79.230469 229.792969 Z M 79.230469 103 " clip-rule="nonzero"/></clipPath><clipPath id="4caa677cf4"><path d="M 165 186 L 210 186 L 210 229.792969 L 165 229.792969 Z M 165 186 " clip-rule="nonzero"/></clipPath><clipPath id="f0bf86459e"><path d="M 252.042969 263.976562 L 295.761719 263.976562 L 295.761719 290.558594 L 252.042969 290.558594 Z M 252.042969 263.976562 " clip-rule="nonzero"/></clipPath><clipPath id="fa15640775"><path d="M 252.066406 263.976562 C 252.066406 278.453125 262.011719 290.558594 273.914062 290.558594 C 285.8125 290.558594 295.761719 278.453125 295.761719 263.976562 Z M 252.066406 263.976562 " clip-rule="nonzero"/></clipPath><clipPath id="a56e533d7a"><path d="M 0.0429688 0.976562 L 43.761719 0.976562 L 43.761719 27.558594 L 0.0429688 27.558594 Z M 0.0429688 0.976562 " clip-rule="nonzero"/></clipPath><clipPath id="08f965ba9f"><path d="M 0.0664062 0.976562 C 0.0664062 15.453125 10.011719 27.558594 21.914062 27.558594 C 33.8125 27.558594 43.761719 15.453125 43.761719 0.976562 Z M 0.0664062 0.976562 " clip-rule="nonzero"/></clipPath><clipPath id="3867669316"><rect x="0" width="44" y="0" height="28"/></clipPath><clipPath id="41e0d68280"><path d="M 252.074219 226.300781 L 295.753906 226.300781 L 295.753906 265.90625 L 252.074219 265.90625 Z M 252.074219 226.300781 " clip-rule="nonzero"/></clipPath><clipPath id="b42ffc74ce"><path d="M 0.0742188 0.300781 L 43.753906 0.300781 L 43.753906 39.90625 L 0.0742188 39.90625 Z M 0.0742188 0.300781 " clip-rule="nonzero"/></clipPath><clipPath id="92510d1a19"><rect x="0" width="44" y="0" height="40"/></clipPath><clipPath id="35a4c19f01"><path d="M 165.652344 165.757812 L 209.695312 165.757812 L 209.695312 229.679688 L 165.652344 229.679688 Z M 165.652344 165.757812 " clip-rule="nonzero"/></clipPath><clipPath id="a79bcb665d"><path d="M 0.652344 0.757812 L 44.695312 0.757812 L 44.695312 64.679688 L 0.652344 64.679688 Z M 0.652344 0.757812 " clip-rule="nonzero"/></clipPath><clipPath id="d8242a4fda"><rect x="0" width="45" y="0" height="65"/></clipPath><clipPath id="239ac37ee3"><path d="M 147.210938 18.03125 L 228.914062 18.03125 L 228.914062 99.738281 L 147.210938 99.738281 Z M 147.210938 18.03125 " clip-rule="nonzero"/></clipPath><clipPath id="6935982739"><path d="M 188.0625 18.03125 C 165.5 18.03125 147.210938 36.324219 147.210938 58.882812 C 147.210938 81.445312 165.5 99.738281 188.0625 99.738281 C 210.625 99.738281 228.914062 81.445312 228.914062 58.882812 C 228.914062 36.324219 210.625 18.03125 188.0625 18.03125 Z M 188.0625 18.03125 " clip-rule="nonzero"/></clipPath><clipPath id="fbcb45de76"><path d="M 0.210938 0.03125 L 81.914062 0.03125 L 81.914062 81.738281 L 0.210938 81.738281 Z M 0.210938 0.03125 " clip-rule="nonzero"/></clipPath><clipPath id="e651678d77"><path d="M 41.0625 0.03125 C 18.5 0.03125 0.210938 18.324219 0.210938 40.882812 C 0.210938 63.445312 18.5 81.738281 41.0625 81.738281 C 63.625 81.738281 81.914062 63.445312 81.914062 40.882812 C 81.914062 18.324219 63.625 0.03125 41.0625 0.03125 Z M 41.0625 0.03125 " clip-rule="nonzero"/></clipPath><clipPath id="9bc6e10f52"><rect x="0" width="82" y="0" height="82"/></clipPath><clipPath id="37663c71a1"><path d="M 165.535156 263.976562 L 209.667969 263.976562 L 209.667969 290.558594 L 165.535156 290.558594 Z M 165.535156 263.976562 " clip-rule="nonzero"/></clipPath><clipPath id="75d7754d4c"><path d="M 165.636719 263.976562 C 165.636719 278.453125 175.660156 290.558594 187.652344 290.558594 C 199.644531 290.558594 209.667969 278.453125 209.667969 263.976562 Z M 165.636719 263.976562 " clip-rule="nonzero"/></clipPath><clipPath id="5a1fcafa9c"><path d="M 0.601562 0.976562 L 44.667969 0.976562 L 44.667969 27.558594 L 0.601562 27.558594 Z M 0.601562 0.976562 " clip-rule="nonzero"/></clipPath><clipPath id="763db33eda"><path d="M 0.636719 0.976562 C 0.636719 15.453125 10.660156 27.558594 22.652344 27.558594 C 34.644531 27.558594 44.667969 15.453125 44.667969 0.976562 Z M 0.636719 0.976562 " clip-rule="nonzero"/></clipPath><clipPath id="1d75f174c0"><rect x="0" width="45" y="0" height="28"/></clipPath><clipPath id="3f833fb519"><path d="M 165.640625 226.300781 L 209.683594 226.300781 L 209.683594 265.90625 L 165.640625 265.90625 Z M 165.640625 226.300781 " clip-rule="nonzero"/></clipPath><clipPath id="6d4c4e25df"><path d="M 0.640625 0.300781 L 44.683594 0.300781 L 44.683594 39.90625 L 0.640625 39.90625 Z M 0.640625 0.300781 " clip-rule="nonzero"/></clipPath><clipPath id="ed2017e385"><rect x="0" width="45" y="0" height="40"/></clipPath><clipPath id="37ce9c1015"><path d="M 173.464844 180.144531 L 202.660156 180.144531 L 202.660156 272.515625 L 173.464844 272.515625 Z M 173.464844 180.144531 " clip-rule="nonzero"/></clipPath><clipPath id="638f36abdc"><path d="M 188.0625 180.144531 C 180 180.144531 173.464844 200.808594 173.464844 226.300781 C 173.464844 251.792969 180 272.457031 188.0625 272.457031 C 196.125 272.457031 202.660156 251.792969 202.660156 226.300781 C 202.660156 200.808594 196.125 180.144531 188.0625 180.144531 Z M 188.0625 180.144531 " clip-rule="nonzero"/></clipPath><clipPath id="55c19fbd97"><path d="M 0.464844 0.144531 L 29.660156 0.144531 L 29.660156 92.515625 L 0.464844 92.515625 Z M 0.464844 0.144531 " clip-rule="nonzero"/></clipPath><clipPath id="ad822b08d6"><path d="M 15.0625 0.144531 C 7 0.144531 0.464844 20.808594 0.464844 46.300781 C 0.464844 71.792969 7 92.457031 15.0625 92.457031 C 23.125 92.457031 29.660156 71.792969 29.660156 46.300781 C 29.660156 20.808594 23.125 0.144531 15.0625 0.144531 Z M 15.0625 0.144531 " clip-rule="nonzero"/></clipPath><clipPath id="e1701487d3"><rect x="0" width="30" y="0" height="93"/></clipPath><clipPath id="e08395e6d4"><path d="M 79.203125 263.976562 L 122.917969 263.976562 L 122.917969 290.558594 L 79.203125 290.558594 Z M 79.203125 263.976562 " clip-rule="nonzero"/></clipPath><clipPath id="4b9ee4ac08"><path d="M 79.226562 263.976562 C 79.226562 278.453125 89.171875 290.558594 101.070312 290.558594 C 112.972656 290.558594 122.917969 278.453125 122.917969 263.976562 Z M 79.226562 263.976562 " clip-rule="nonzero"/></clipPath><clipPath id="faaae4b92c"><path d="M 0.203125 0.976562 L 43.917969 0.976562 L 43.917969 27.558594 L 0.203125 27.558594 Z M 0.203125 0.976562 " clip-rule="nonzero"/></clipPath><clipPath id="52aab3c347"><path d="M 0.226562 0.976562 C 0.226562 15.453125 10.171875 27.558594 22.070312 27.558594 C 33.972656 27.558594 43.917969 15.453125 43.917969 0.976562 Z M 0.226562 0.976562 " clip-rule="nonzero"/></clipPath><clipPath id="0b96546b07"><rect x="0" width="44" y="0" height="28"/></clipPath><clipPath id="693c194ec9"><path d="M 79.230469 226.300781 L 122.914062 226.300781 L 122.914062 265.90625 L 79.230469 265.90625 Z M 79.230469 226.300781 " clip-rule="nonzero"/></clipPath><clipPath id="d21a46d3c3"><path d="M 0.230469 0.300781 L 43.914062 0.300781 L 43.914062 39.90625 L 0.230469 39.90625 Z M 0.230469 0.300781 " clip-rule="nonzero"/></clipPath><clipPath id="c074116992"><rect x="0" width="44" y="0" height="40"/></clipPath></defs><rect x="-37.5" width="450" fill="#ffffff" y="-37.499999" height="449.999989" fill-opacity="1"/><rect x="-37.5" width="450" fill="#e2cbf6" y="-37.499999" height="449.999989" fill-opacity="1"/><g clip-path="url(#6b6807314f)"><path fill="#8c52ff" d="M 213.664062 70.863281 C 213.664062 71.71875 213.621094 72.574219 213.539062 73.425781 C 213.453125 74.277344 213.328125 75.121094 213.160156 75.960938 C 212.992188 76.800781 212.785156 77.628906 212.539062 78.449219 C 212.289062 79.269531 212 80.074219 211.671875 80.863281 C 211.347656 81.65625 210.980469 82.429688 210.578125 83.183594 C 210.171875 83.9375 209.734375 84.671875 209.257812 85.382812 C 208.78125 86.09375 208.273438 86.78125 207.730469 87.441406 C 207.1875 88.105469 206.613281 88.738281 206.007812 89.34375 C 205.402344 89.949219 204.769531 90.523438 204.109375 91.066406 C 203.445312 91.609375 202.757812 92.117188 202.046875 92.59375 C 201.335938 93.070312 200.601562 93.507812 199.847656 93.914062 C 199.09375 94.316406 198.320312 94.679688 197.527344 95.007812 C 196.738281 95.335938 195.933594 95.625 195.113281 95.871094 C 194.296875 96.121094 193.464844 96.328125 192.625 96.496094 C 191.785156 96.664062 190.941406 96.789062 190.089844 96.871094 C 189.238281 96.957031 188.382812 97 187.527344 97 C 186.671875 97 185.816406 96.957031 184.964844 96.871094 C 184.113281 96.789062 183.269531 96.664062 182.429688 96.496094 C 181.589844 96.328125 180.757812 96.121094 179.941406 95.871094 C 179.121094 95.625 178.316406 95.335938 177.527344 95.007812 C 176.734375 94.679688 175.960938 94.316406 175.207031 93.914062 C 174.453125 93.507812 173.71875 93.070312 173.007812 92.59375 C 172.296875 92.117188 171.609375 91.609375 170.945312 91.066406 C 170.285156 90.523438 169.652344 89.949219 169.046875 89.34375 C 168.441406 88.738281 167.867188 88.105469 167.324219 87.441406 C 166.78125 86.78125 166.273438 86.09375 165.796875 85.382812 C 165.320312 84.671875 164.882812 83.9375 164.476562 83.183594 C 164.074219 82.429688 163.707031 81.65625 163.382812 80.863281 C 163.054688 80.074219 162.765625 79.269531 162.515625 78.449219 C 162.269531 77.628906 162.0625 76.800781 161.894531 75.960938 C 161.726562 75.121094 161.601562 74.277344 161.515625 73.425781 C 161.433594 72.574219 161.390625 71.71875 161.390625 70.863281 C 161.390625 70.007812 161.433594 69.152344 161.515625 68.300781 C 161.601562 67.449219 161.726562 66.601562 161.894531 65.761719 C 162.0625 64.925781 162.269531 64.09375 162.515625 63.277344 C 162.765625 62.457031 163.054688 61.652344 163.382812 60.859375 C 163.707031 60.070312 164.074219 59.296875 164.476562 58.542969 C 164.882812 57.789062 165.320312 57.054688 165.796875 56.34375 C 166.273438 55.628906 166.78125 54.945312 167.324219 54.28125 C 167.867188 53.621094 168.441406 52.988281 169.046875 52.382812 C 169.652344 51.777344 170.285156 51.203125 170.945312 50.660156 C 171.609375 50.117188 172.296875 49.605469 173.007812 49.132812 C 173.71875 48.65625 174.453125 48.214844 175.207031 47.8125 C 175.960938 47.410156 176.734375 47.042969 177.527344 46.714844 C 178.316406 46.386719 179.121094 46.101562 179.941406 45.851562 C 180.757812 45.605469 181.589844 45.394531 182.429688 45.230469 C 183.269531 45.0625 184.113281 44.9375 184.964844 44.851562 C 185.816406 44.769531 186.671875 44.726562 187.527344 44.726562 C 188.382812 44.726562 189.238281 44.769531 190.089844 44.851562 C 190.941406 44.9375 191.785156 45.0625 192.625 45.230469 C 193.464844 45.394531 194.296875 45.605469 195.113281 45.851562 C 195.933594 46.101562 196.738281 46.386719 197.527344 46.714844 C 198.320312 47.042969 199.09375 47.410156 199.847656 47.8125 C 200.601562 48.214844 201.335938 48.65625 202.046875 49.132812 C 202.757812 49.605469 203.445312 50.117188 204.109375 50.660156 C 204.769531 51.203125 205.402344 51.777344 206.007812 52.382812 C 206.613281 52.988281 207.1875 53.621094 207.730469 54.28125 C 208.273438 54.945312 208.78125 55.628906 209.257812 56.34375 C 209.734375 57.054688 210.171875 57.789062 210.578125 58.542969 C 210.980469 59.296875 211.347656 60.070312 211.671875 60.859375 C 212 61.652344 212.289062 62.457031 212.539062 63.277344 C 212.785156 64.09375 212.992188 64.925781 213.160156 65.761719 C 213.328125 66.601562 213.453125 67.449219 213.539062 68.300781 C 213.621094 69.152344 213.664062 70.007812 213.664062 70.863281 Z M 213.664062 70.863281 " fill-opacity="1" fill-rule="nonzero"/></g><g clip-path="url(#0a9aca83d5)"><path fill="#8c52ff" d="M 295.757812 166.277344 L 295.757812 229.492188 L 252.179688 229.492188 L 252.179688 173.78125 C 252.179688 158.523438 246.613281 145.894531 230.609375 145.894531 C 214.601562 145.894531 209.285156 158.523438 209.285156 173.78125 L 165.707031 173.78125 C 165.707031 158.523438 160.390625 145.894531 144.382812 145.894531 C 128.378906 145.894531 122.8125 158.523438 122.8125 173.78125 L 122.8125 229.492188 L 79.230469 229.492188 L 79.230469 166.277344 C 79.230469 132.636719 99.367188 103.5625 141.007812 103.5625 C 163.765625 103.5625 180.273438 112.503906 187.777344 127.324219 C 195.78125 112.566406 213.226562 103.5625 234.046875 103.5625 C 275.6875 103.5 295.757812 132.574219 295.757812 166.277344 Z M 295.757812 166.277344 " fill-opacity="1" fill-rule="nonzero"/></g><g clip-path="url(#4caa677cf4)"><path fill="#8c52ff" d="M 165.769531 186.285156 L 209.222656 186.285156 L 209.222656 229.429688 L 165.769531 229.429688 Z M 165.769531 186.285156 " fill-opacity="1" fill-rule="nonzero"/></g><g clip-path="url(#f0bf86459e)"><g clip-path="url(#fa15640775)"><g transform="matrix(1, 0, 0, 1, 252, 263)"><g clip-path="url(#3867669316)"><g clip-path="url(#a56e533d7a)"><g clip-path="url(#08f965ba9f)"><path fill="#ff5757" d="M 43.761719 27.558594 L 0.0429688 27.558594 L 0.0429688 0.976562 L 43.761719 0.976562 Z M 43.761719 27.558594 " fill-opacity="1" fill-rule="nonzero"/></g></g></g></g></g></g><g clip-path="url(#41e0d68280)"><g transform="matrix(1, 0, 0, 1, 252, 226)"><g clip-path="url(#92510d1a19)"><g clip-path="url(#b42ffc74ce)"><path fill="#ff5757" d="M 0.0742188 0.300781 L 43.703125 0.300781 L 43.703125 39.90625 L 0.0742188 39.90625 Z M 0.0742188 0.300781 " fill-opacity="1" fill-rule="nonzero"/></g></g></g></g><g clip-path="url(#35a4c19f01)"><g transform="matrix(1, 0, 0, 1, 165, 165)"><g clip-path="url(#d8242a4fda)"><g clip-path="url(#a79bcb665d)"><path fill="#8c52ff" d="M 0.652344 0.757812 L 44.695312 0.757812 L 44.695312 64.757812 L 0.652344 64.757812 Z M 0.652344 0.757812 " fill-opacity="1" fill-rule="nonzero"/></g></g></g></g><g clip-path="url(#239ac37ee3)"><g clip-path="url(#6935982739)"><g transform="matrix(1, 0, 0, 1, 147, 18)"><g clip-path="url(#9bc6e10f52)"><g clip-path="url(#fbcb45de76)"><g clip-path="url(#e651678d77)"><path fill="#e2cbf6" d="M 0.210938 0.03125 L 81.914062 0.03125 L 81.914062 81.738281 L 0.210938 81.738281 Z M 0.210938 0.03125 " fill-opacity="1" fill-rule="nonzero"/></g></g></g></g></g></g><g clip-path="url(#37663c71a1)"><g clip-path="url(#75d7754d4c)"><g transform="matrix(1, 0, 0, 1, 165, 263)"><g clip-path="url(#1d75f174c0)"><g clip-path="url(#5a1fcafa9c)"><g clip-path="url(#763db33eda)"><path fill="#ff5757" d="M 44.667969 27.558594 L 0.640625 27.558594 L 0.640625 0.976562 L 44.667969 0.976562 Z M 44.667969 27.558594 " fill-opacity="1" fill-rule="nonzero"/></g></g></g></g></g></g><g clip-path="url(#3f833fb519)"><g transform="matrix(1, 0, 0, 1, 165, 226)"><g clip-path="url(#ed2017e385)"><g clip-path="url(#6d4c4e25df)"><path fill="#ff5757" d="M 0.640625 0.300781 L 44.734375 0.300781 L 44.734375 39.90625 L 0.640625 39.90625 Z M 0.640625 0.300781 " fill-opacity="1" fill-rule="nonzero"/></g></g></g></g><g clip-path="url(#37ce9c1015)"><g clip-path="url(#638f36abdc)"><g transform="matrix(1, 0, 0, 1, 173, 180)"><g clip-path="url(#e1701487d3)"><g clip-path="url(#55c19fbd97)"><g clip-path="url(#ad822b08d6)"><path fill="#e2cbf6" d="M 0.464844 0.144531 L 29.660156 0.144531 L 29.660156 92.402344 L 0.464844 92.402344 Z M 0.464844 0.144531 " fill-opacity="1" fill-rule="nonzero"/></g></g></g></g></g></g><g clip-path="url(#e08395e6d4)"><g clip-path="url(#4b9ee4ac08)"><g transform="matrix(1, 0, 0, 1, 79, 263)"><g clip-path="url(#0b96546b07)"><g clip-path="url(#faaae4b92c)"><g clip-path="url(#52aab3c347)"><path fill="#ff5757" d="M 43.917969 27.558594 L 0.203125 27.558594 L 0.203125 0.976562 L 43.917969 0.976562 Z M 43.917969 27.558594 " fill-opacity="1" fill-rule="nonzero"/></g></g></g></g></g></g><g clip-path="url(#693c194ec9)"><g transform="matrix(1, 0, 0, 1, 79, 226)"><g clip-path="url(#c074116992)"><g clip-path="url(#d21a46d3c3)"><path fill="#ff5757" d="M 0.230469 0.300781 L 43.863281 0.300781 L 43.863281 39.90625 L 0.230469 39.90625 Z M 0.230469 0.300781 " fill-opacity="1" fill-rule="nonzero"/></g></g></g></g></svg>