<svg xmlns="http://www.w3.org/2000/svg" xmlns:xlink="http://www.w3.org/1999/xlink" width="500" zoomAndPan="magnify" viewBox="0 0 375 374.999991" height="500" preserveAspectRatio="xMidYMid meet" version="1.0"><defs><clipPath id="99cb8d2d95"><path d="M 1.515625 6 L 349.679688 6 L 349.679688 209 L 1.515625 209 Z M 1.515625 6 " clip-rule="nonzero"/></clipPath><clipPath id="eca77f6985"><path d="M 279.222656 264.074219 L 349.472656 264.074219 L 349.472656 306.789062 L 279.222656 306.789062 Z M 279.222656 264.074219 " clip-rule="nonzero"/></clipPath><clipPath id="86cfae3d50"><path d="M 279.253906 264.074219 C 279.253906 287.339844 295.238281 306.789062 314.363281 306.789062 C 333.484375 306.789062 349.472656 287.339844 349.472656 264.074219 Z M 279.253906 264.074219 " clip-rule="nonzero"/></clipPath><clipPath id="b55cc638ed"><path d="M 0.222656 0.0742188 L 70.472656 0.0742188 L 70.472656 42.789062 L 0.222656 42.789062 Z M 0.222656 0.0742188 " clip-rule="nonzero"/></clipPath><clipPath id="dd67d1553b"><path d="M 0.253906 0.0742188 C 0.253906 23.339844 16.238281 42.789062 35.363281 42.789062 C 54.484375 42.789062 70.472656 23.339844 70.472656 0.0742188 Z M 0.253906 0.0742188 " clip-rule="nonzero"/></clipPath><clipPath id="bbf4ffd5e0"><rect x="0" width="71" y="0" height="43"/></clipPath><clipPath id="18c74490cf"><path d="M 279.265625 203.53125 L 349.460938 203.53125 L 349.460938 267.175781 L 279.265625 267.175781 Z M 279.265625 203.53125 " clip-rule="nonzero"/></clipPath><clipPath id="8bc3831ddb"><path d="M 0.265625 0.53125 L 70.460938 0.53125 L 70.460938 64.175781 L 0.265625 64.175781 Z M 0.265625 0.53125 " clip-rule="nonzero"/></clipPath><clipPath id="d464abd43f"><rect x="0" width="71" y="0" height="65"/></clipPath><clipPath id="83bebe4b2d"><path d="M 140.390625 106.238281 L 211.167969 106.238281 L 211.167969 208.960938 L 140.390625 208.960938 Z M 140.390625 106.238281 " clip-rule="nonzero"/></clipPath><clipPath id="bf7574e4c6"><path d="M 0.390625 0.238281 L 71.167969 0.238281 L 71.167969 102.960938 L 0.390625 102.960938 Z M 0.390625 0.238281 " clip-rule="nonzero"/></clipPath><clipPath id="18fa5b1e6d"><rect x="0" width="72" y="0" height="103"/></clipPath><clipPath id="811f25da43"><path d="M 110.757812 0 L 242.054688 0 L 242.054688 0.144531 L 110.757812 0.144531 Z M 110.757812 0 " clip-rule="nonzero"/></clipPath><clipPath id="48028cfbfa"><path d="M 176.40625 -131.152344 C 140.148438 -131.152344 110.757812 -101.761719 110.757812 -65.503906 C 110.757812 -29.246094 140.148438 0.144531 176.40625 0.144531 C 212.660156 0.144531 242.054688 -29.246094 242.054688 -65.503906 C 242.054688 -101.761719 212.660156 -131.152344 176.40625 -131.152344 Z M 176.40625 -131.152344 " clip-rule="nonzero"/></clipPath><clipPath id="dee0ee27ce"><path d="M 0.757812 0 L 132.054688 0 L 132.054688 0.144531 L 0.757812 0.144531 Z M 0.757812 0 " clip-rule="nonzero"/></clipPath><clipPath id="80c563c30b"><path d="M 66.40625 -131.152344 C 30.148438 -131.152344 0.757812 -101.761719 0.757812 -65.503906 C 0.757812 -29.246094 30.148438 0.144531 66.40625 0.144531 C 102.660156 0.144531 132.054688 -29.246094 132.054688 -65.503906 C 132.054688 -101.761719 102.660156 -131.152344 66.40625 -131.152344 Z M 66.40625 -131.152344 " clip-rule="nonzero"/></clipPath><clipPath id="95cb6df283"><rect x="0" width="133" y="0" height="1"/></clipPath><clipPath id="6fe4112048"><path d="M 140.207031 264.074219 L 211.121094 264.074219 L 211.121094 306.789062 L 140.207031 306.789062 Z M 140.207031 264.074219 " clip-rule="nonzero"/></clipPath><clipPath id="8d7cf54aad"><path d="M 140.363281 264.074219 C 140.363281 287.339844 156.472656 306.789062 175.742188 306.789062 C 195.011719 306.789062 211.121094 287.339844 211.121094 264.074219 Z M 140.363281 264.074219 " clip-rule="nonzero"/></clipPath><clipPath id="d8736ace7c"><path d="M 0.207031 0.0742188 L 71.121094 0.0742188 L 71.121094 42.789062 L 0.207031 42.789062 Z M 0.207031 0.0742188 " clip-rule="nonzero"/></clipPath><clipPath id="1c00cb405f"><path d="M 0.363281 0.0742188 C 0.363281 23.339844 16.472656 42.789062 35.742188 42.789062 C 55.011719 42.789062 71.121094 23.339844 71.121094 0.0742188 Z M 0.363281 0.0742188 " clip-rule="nonzero"/></clipPath><clipPath id="bd720273e5"><rect x="0" width="72" y="0" height="43"/></clipPath><clipPath id="61651ba7f3"><path d="M 140.371094 203.53125 L 211.148438 203.53125 L 211.148438 267.175781 L 140.371094 267.175781 Z M 140.371094 203.53125 " clip-rule="nonzero"/></clipPath><clipPath id="fc16aef0f9"><path d="M 0.371094 0.53125 L 71.148438 0.53125 L 71.148438 64.175781 L 0.371094 64.175781 Z M 0.371094 0.53125 " clip-rule="nonzero"/></clipPath><clipPath id="8e34d8ecee"><rect x="0" width="72" y="0" height="65"/></clipPath><clipPath id="f5e4507af6"><path d="M 152.949219 129.355469 L 199.863281 129.355469 L 199.863281 277.800781 L 152.949219 277.800781 Z M 152.949219 129.355469 " clip-rule="nonzero"/></clipPath><clipPath id="4b0195f9e5"><path d="M 176.40625 129.355469 C 163.449219 129.355469 152.949219 162.566406 152.949219 203.53125 C 152.949219 244.496094 163.449219 277.703125 176.40625 277.703125 C 189.359375 277.703125 199.863281 244.496094 199.863281 203.53125 C 199.863281 162.566406 189.359375 129.355469 176.40625 129.355469 Z M 176.40625 129.355469 " clip-rule="nonzero"/></clipPath><clipPath id="a7e18b8673"><path d="M 0.949219 0.355469 L 47.863281 0.355469 L 47.863281 148.800781 L 0.949219 148.800781 Z M 0.949219 0.355469 " clip-rule="nonzero"/></clipPath><clipPath id="cd27f3d5aa"><path d="M 24.40625 0.355469 C 11.449219 0.355469 0.949219 33.566406 0.949219 74.53125 C 0.949219 115.496094 11.449219 148.703125 24.40625 148.703125 C 37.359375 148.703125 47.863281 115.496094 47.863281 74.53125 C 47.863281 33.566406 37.359375 0.355469 24.40625 0.355469 Z M 24.40625 0.355469 " clip-rule="nonzero"/></clipPath><clipPath id="5d494521be"><rect x="0" width="48" y="0" height="149"/></clipPath><clipPath id="2485686b54"><path d="M 1.472656 264.074219 L 71.722656 264.074219 L 71.722656 306.789062 L 1.472656 306.789062 Z M 1.472656 264.074219 " clip-rule="nonzero"/></clipPath><clipPath id="41d85ac798"><path d="M 1.503906 264.074219 C 1.503906 287.339844 17.488281 306.789062 36.613281 306.789062 C 55.734375 306.789062 71.722656 287.339844 71.722656 264.074219 Z M 1.503906 264.074219 " clip-rule="nonzero"/></clipPath><clipPath id="e2a6799c23"><path d="M 0.472656 0.0742188 L 70.722656 0.0742188 L 70.722656 42.789062 L 0.472656 42.789062 Z M 0.472656 0.0742188 " clip-rule="nonzero"/></clipPath><clipPath id="40ca2f513a"><path d="M 0.503906 0.0742188 C 0.503906 23.339844 16.488281 42.789062 35.613281 42.789062 C 54.734375 42.789062 70.722656 23.339844 70.722656 0.0742188 Z M 0.503906 0.0742188 " clip-rule="nonzero"/></clipPath><clipPath id="e9c94652a7"><rect x="0" width="71" y="0" height="43"/></clipPath><clipPath id="0481fd09a8"><path d="M 1.515625 203.53125 L 71.710938 203.53125 L 71.710938 267.175781 L 1.515625 267.175781 Z M 1.515625 203.53125 " clip-rule="nonzero"/></clipPath><clipPath id="b9fa68f9f9"><path d="M 0.515625 0.53125 L 70.710938 0.53125 L 70.710938 64.175781 L 0.515625 64.175781 Z M 0.515625 0.53125 " clip-rule="nonzero"/></clipPath><clipPath id="e8c556f245"><rect x="0" width="71" y="0" height="65"/></clipPath><clipPath id="73500aec15"><rect x="0" width="350" y="0" height="307"/></clipPath></defs><g transform="matrix(1, 0, 0, 1, 12, 0)"><g clip-path="url(#73500aec15)"><g clip-path="url(#99cb8d2d95)"><path fill="#bea1f7" d="M 349.46875 107.074219 L 349.46875 208.65625 L 279.4375 208.65625 L 279.4375 119.132812 C 279.4375 94.613281 270.496094 74.316406 244.773438 74.316406 C 219.050781 74.316406 210.511719 94.613281 210.511719 119.132812 L 140.476562 119.132812 C 140.476562 94.613281 131.9375 74.316406 106.214844 74.316406 C 80.492188 74.316406 71.550781 94.613281 71.550781 119.132812 L 71.550781 208.65625 L 1.515625 208.65625 L 1.515625 107.074219 C 1.515625 53.015625 33.871094 6.292969 100.789062 6.292969 C 137.363281 6.292969 163.886719 20.664062 175.945312 44.476562 C 188.808594 20.761719 216.839844 6.292969 250.300781 6.292969 C 317.21875 6.195312 349.46875 52.917969 349.46875 107.074219 Z M 349.46875 107.074219 " fill-opacity="1" fill-rule="nonzero"/></g><path fill="#bea1f7" d="M 140.578125 139.226562 L 210.410156 139.226562 L 210.410156 208.554688 L 140.578125 208.554688 Z M 140.578125 139.226562 " fill-opacity="1" fill-rule="nonzero"/><g clip-path="url(#eca77f6985)"><g clip-path="url(#86cfae3d50)"><g transform="matrix(1, 0, 0, 1, 279, 264)"><g clip-path="url(#bbf4ffd5e0)"><g clip-path="url(#b55cc638ed)"><g clip-path="url(#dd67d1553b)"><path fill="#ff5757" d="M 70.472656 42.789062 L 0.222656 42.789062 L 0.222656 0.0742188 L 70.472656 0.0742188 Z M 70.472656 42.789062 " fill-opacity="1" fill-rule="nonzero"/></g></g></g></g></g></g><g clip-path="url(#18c74490cf)"><g transform="matrix(1, 0, 0, 1, 279, 203)"><g clip-path="url(#d464abd43f)"><g clip-path="url(#8bc3831ddb)"><path fill="#ff5757" d="M 0.265625 0.53125 L 70.375 0.53125 L 70.375 64.175781 L 0.265625 64.175781 Z M 0.265625 0.53125 " fill-opacity="1" fill-rule="nonzero"/></g></g></g></g><g clip-path="url(#83bebe4b2d)"><g transform="matrix(1, 0, 0, 1, 140, 106)"><g clip-path="url(#18fa5b1e6d)"><g clip-path="url(#bf7574e4c6)"><path fill="#bea1f7" d="M 0.390625 0.238281 L 71.167969 0.238281 L 71.167969 103.085938 L 0.390625 103.085938 Z M 0.390625 0.238281 " fill-opacity="1" fill-rule="nonzero"/></g></g></g></g><g clip-path="url(#811f25da43)"><g clip-path="url(#48028cfbfa)"><g transform="matrix(1, 0, 0, 1, 110, 0)"><g clip-path="url(#95cb6df283)"><g clip-path="url(#dee0ee27ce)"><g clip-path="url(#80c563c30b)"><path fill="#ffffff" d="M 0.757812 -131.152344 L 132.054688 -131.152344 L 132.054688 0.144531 L 0.757812 0.144531 Z M 0.757812 -131.152344 " fill-opacity="1" fill-rule="nonzero"/></g></g></g></g></g></g><g clip-path="url(#6fe4112048)"><g clip-path="url(#8d7cf54aad)"><g transform="matrix(1, 0, 0, 1, 140, 264)"><g clip-path="url(#bd720273e5)"><g clip-path="url(#d8736ace7c)"><g clip-path="url(#1c00cb405f)"><path fill="#ff5757" d="M 71.121094 42.789062 L 0.371094 42.789062 L 0.371094 0.0742188 L 71.121094 0.0742188 Z M 71.121094 42.789062 " fill-opacity="1" fill-rule="nonzero"/></g></g></g></g></g></g><g clip-path="url(#61651ba7f3)"><g transform="matrix(1, 0, 0, 1, 140, 203)"><g clip-path="url(#8e34d8ecee)"><g clip-path="url(#fc16aef0f9)"><path fill="#ff5757" d="M 0.371094 0.53125 L 71.226562 0.53125 L 71.226562 64.175781 L 0.371094 64.175781 Z M 0.371094 0.53125 " fill-opacity="1" fill-rule="nonzero"/></g></g></g></g><g clip-path="url(#f5e4507af6)"><g clip-path="url(#4b0195f9e5)"><g transform="matrix(1, 0, 0, 1, 152, 129)"><g clip-path="url(#5d494521be)"><g clip-path="url(#a7e18b8673)"><g clip-path="url(#cd27f3d5aa)"><path fill="#ffffff" d="M 0.949219 0.355469 L 47.863281 0.355469 L 47.863281 148.617188 L 0.949219 148.617188 Z M 0.949219 0.355469 " fill-opacity="1" fill-rule="nonzero"/></g></g></g></g></g></g><g clip-path="url(#2485686b54)"><g clip-path="url(#41d85ac798)"><g transform="matrix(1, 0, 0, 1, 1, 264)"><g clip-path="url(#e9c94652a7)"><g clip-path="url(#e2a6799c23)"><g clip-path="url(#40ca2f513a)"><path fill="#ff5757" d="M 70.722656 42.789062 L 0.472656 42.789062 L 0.472656 0.0742188 L 70.722656 0.0742188 Z M 70.722656 42.789062 " fill-opacity="1" fill-rule="nonzero"/></g></g></g></g></g></g><g clip-path="url(#0481fd09a8)"><g transform="matrix(1, 0, 0, 1, 1, 203)"><g clip-path="url(#e8c556f245)"><g clip-path="url(#b9fa68f9f9)"><path fill="#ff5757" d="M 0.515625 0.53125 L 70.628906 0.53125 L 70.628906 64.175781 L 0.515625 64.175781 Z M 0.515625 0.53125 " fill-opacity="1" fill-rule="nonzero"/></g></g></g></g></g></g></svg>