<svg xmlns="http://www.w3.org/2000/svg" xmlns:xlink="http://www.w3.org/1999/xlink" width="500" zoomAndPan="magnify" viewBox="0 0 375 374.999991" height="500" preserveAspectRatio="xMidYMid meet" version="1.0"><defs><clipPath id="d2c7fde639"><path d="M 161 44.542969 L 214 44.542969 L 214 97 L 161 97 Z M 161 44.542969 " clip-rule="nonzero"/></clipPath><clipPath id="ef319b0fcb"><path d="M 79.230469 103 L 295.980469 103 L 295.980469 229.792969 L 79.230469 229.792969 Z M 79.230469 103 " clip-rule="nonzero"/></clipPath><clipPath id="de9f131b20"><path d="M 165 186 L 210 186 L 210 229.792969 L 165 229.792969 Z M 165 186 " clip-rule="nonzero"/></clipPath><clipPath id="316cea98a3"><path d="M 252.042969 263.976562 L 295.761719 263.976562 L 295.761719 290.558594 L 252.042969 290.558594 Z M 252.042969 263.976562 " clip-rule="nonzero"/></clipPath><clipPath id="a588b571b6"><path d="M 252.066406 263.976562 C 252.066406 278.453125 262.011719 290.558594 273.914062 290.558594 C 285.8125 290.558594 295.761719 278.453125 295.761719 263.976562 Z M 252.066406 263.976562 " clip-rule="nonzero"/></clipPath><clipPath id="0435503eaa"><path d="M 0.0429688 0.976562 L 43.761719 0.976562 L 43.761719 27.558594 L 0.0429688 27.558594 Z M 0.0429688 0.976562 " clip-rule="nonzero"/></clipPath><clipPath id="1b22a56165"><path d="M 0.0664062 0.976562 C 0.0664062 15.453125 10.011719 27.558594 21.914062 27.558594 C 33.8125 27.558594 43.761719 15.453125 43.761719 0.976562 Z M 0.0664062 0.976562 " clip-rule="nonzero"/></clipPath><clipPath id="df1ecd1875"><rect x="0" width="44" y="0" height="28"/></clipPath><clipPath id="ece4a71aff"><path d="M 252.074219 226.300781 L 295.753906 226.300781 L 295.753906 265.90625 L 252.074219 265.90625 Z M 252.074219 226.300781 " clip-rule="nonzero"/></clipPath><clipPath id="f76ca28a67"><path d="M 0.0742188 0.300781 L 43.753906 0.300781 L 43.753906 39.90625 L 0.0742188 39.90625 Z M 0.0742188 0.300781 " clip-rule="nonzero"/></clipPath><clipPath id="d0b4cc1e16"><rect x="0" width="44" y="0" height="40"/></clipPath><clipPath id="36e2fcb1a6"><path d="M 165.652344 165.757812 L 209.695312 165.757812 L 209.695312 229.679688 L 165.652344 229.679688 Z M 165.652344 165.757812 " clip-rule="nonzero"/></clipPath><clipPath id="12d66ba3dd"><path d="M 0.652344 0.757812 L 44.695312 0.757812 L 44.695312 64.679688 L 0.652344 64.679688 Z M 0.652344 0.757812 " clip-rule="nonzero"/></clipPath><clipPath id="eaba41d1f9"><rect x="0" width="45" y="0" height="65"/></clipPath><clipPath id="db7225103a"><path d="M 147.210938 18.03125 L 228.914062 18.03125 L 228.914062 99.738281 L 147.210938 99.738281 Z M 147.210938 18.03125 " clip-rule="nonzero"/></clipPath><clipPath id="ade2058f25"><path d="M 188.0625 18.03125 C 165.5 18.03125 147.210938 36.324219 147.210938 58.882812 C 147.210938 81.445312 165.5 99.738281 188.0625 99.738281 C 210.625 99.738281 228.914062 81.445312 228.914062 58.882812 C 228.914062 36.324219 210.625 18.03125 188.0625 18.03125 Z M 188.0625 18.03125 " clip-rule="nonzero"/></clipPath><clipPath id="8a270fee13"><path d="M 0.210938 0.03125 L 81.914062 0.03125 L 81.914062 81.738281 L 0.210938 81.738281 Z M 0.210938 0.03125 " clip-rule="nonzero"/></clipPath><clipPath id="9cbcc61b0d"><path d="M 41.0625 0.03125 C 18.5 0.03125 0.210938 18.324219 0.210938 40.882812 C 0.210938 63.445312 18.5 81.738281 41.0625 81.738281 C 63.625 81.738281 81.914062 63.445312 81.914062 40.882812 C 81.914062 18.324219 63.625 0.03125 41.0625 0.03125 Z M 41.0625 0.03125 " clip-rule="nonzero"/></clipPath><clipPath id="8e04e3e36b"><rect x="0" width="82" y="0" height="82"/></clipPath><clipPath id="274c504ffa"><path d="M 165.535156 263.976562 L 209.667969 263.976562 L 209.667969 290.558594 L 165.535156 290.558594 Z M 165.535156 263.976562 " clip-rule="nonzero"/></clipPath><clipPath id="071f94d2e9"><path d="M 165.636719 263.976562 C 165.636719 278.453125 175.660156 290.558594 187.652344 290.558594 C 199.644531 290.558594 209.667969 278.453125 209.667969 263.976562 Z M 165.636719 263.976562 " clip-rule="nonzero"/></clipPath><clipPath id="c3e5cc5c96"><path d="M 0.601562 0.976562 L 44.667969 0.976562 L 44.667969 27.558594 L 0.601562 27.558594 Z M 0.601562 0.976562 " clip-rule="nonzero"/></clipPath><clipPath id="f549bdfad3"><path d="M 0.636719 0.976562 C 0.636719 15.453125 10.660156 27.558594 22.652344 27.558594 C 34.644531 27.558594 44.667969 15.453125 44.667969 0.976562 Z M 0.636719 0.976562 " clip-rule="nonzero"/></clipPath><clipPath id="8170a1988f"><rect x="0" width="45" y="0" height="28"/></clipPath><clipPath id="f4587ff572"><path d="M 165.640625 226.300781 L 209.683594 226.300781 L 209.683594 265.90625 L 165.640625 265.90625 Z M 165.640625 226.300781 " clip-rule="nonzero"/></clipPath><clipPath id="1dbd639af6"><path d="M 0.640625 0.300781 L 44.683594 0.300781 L 44.683594 39.90625 L 0.640625 39.90625 Z M 0.640625 0.300781 " clip-rule="nonzero"/></clipPath><clipPath id="f455c5fcbb"><rect x="0" width="45" y="0" height="40"/></clipPath><clipPath id="9dbba203be"><path d="M 173.464844 180.144531 L 202.660156 180.144531 L 202.660156 272.515625 L 173.464844 272.515625 Z M 173.464844 180.144531 " clip-rule="nonzero"/></clipPath><clipPath id="3627ae2c70"><path d="M 188.0625 180.144531 C 180 180.144531 173.464844 200.808594 173.464844 226.300781 C 173.464844 251.792969 180 272.457031 188.0625 272.457031 C 196.125 272.457031 202.660156 251.792969 202.660156 226.300781 C 202.660156 200.808594 196.125 180.144531 188.0625 180.144531 Z M 188.0625 180.144531 " clip-rule="nonzero"/></clipPath><clipPath id="5703e55047"><path d="M 0.464844 0.144531 L 29.660156 0.144531 L 29.660156 92.515625 L 0.464844 92.515625 Z M 0.464844 0.144531 " clip-rule="nonzero"/></clipPath><clipPath id="e3d4f0e548"><path d="M 15.0625 0.144531 C 7 0.144531 0.464844 20.808594 0.464844 46.300781 C 0.464844 71.792969 7 92.457031 15.0625 92.457031 C 23.125 92.457031 29.660156 71.792969 29.660156 46.300781 C 29.660156 20.808594 23.125 0.144531 15.0625 0.144531 Z M 15.0625 0.144531 " clip-rule="nonzero"/></clipPath><clipPath id="ddac429fa1"><rect x="0" width="30" y="0" height="93"/></clipPath><clipPath id="056f58be82"><path d="M 79.203125 263.976562 L 122.917969 263.976562 L 122.917969 290.558594 L 79.203125 290.558594 Z M 79.203125 263.976562 " clip-rule="nonzero"/></clipPath><clipPath id="aa992cce7d"><path d="M 79.226562 263.976562 C 79.226562 278.453125 89.171875 290.558594 101.070312 290.558594 C 112.972656 290.558594 122.917969 278.453125 122.917969 263.976562 Z M 79.226562 263.976562 " clip-rule="nonzero"/></clipPath><clipPath id="78d7bfca8c"><path d="M 0.203125 0.976562 L 43.917969 0.976562 L 43.917969 27.558594 L 0.203125 27.558594 Z M 0.203125 0.976562 " clip-rule="nonzero"/></clipPath><clipPath id="ca573735f1"><path d="M 0.226562 0.976562 C 0.226562 15.453125 10.171875 27.558594 22.070312 27.558594 C 33.972656 27.558594 43.917969 15.453125 43.917969 0.976562 Z M 0.226562 0.976562 " clip-rule="nonzero"/></clipPath><clipPath id="68584f1d38"><rect x="0" width="44" y="0" height="28"/></clipPath><clipPath id="e4b199062e"><path d="M 79.230469 226.300781 L 122.914062 226.300781 L 122.914062 265.90625 L 79.230469 265.90625 Z M 79.230469 226.300781 " clip-rule="nonzero"/></clipPath><clipPath id="f742b536f7"><path d="M 0.230469 0.300781 L 43.914062 0.300781 L 43.914062 39.90625 L 0.230469 39.90625 Z M 0.230469 0.300781 " clip-rule="nonzero"/></clipPath><clipPath id="dd79906d30"><rect x="0" width="44" y="0" height="40"/></clipPath></defs><rect x="-37.5" width="450" fill="#ffffff" y="-37.499999" height="449.999989" fill-opacity="1"/><rect x="-37.5" width="450" fill="#ffffff" y="-37.499999" height="449.999989" fill-opacity="1"/><g clip-path="url(#d2c7fde639)"><path fill="#8c52ff" d="M 213.664062 70.863281 C 213.664062 71.71875 213.621094 72.574219 213.539062 73.425781 C 213.453125 74.277344 213.328125 75.121094 213.160156 75.960938 C 212.992188 76.800781 212.785156 77.628906 212.539062 78.449219 C 212.289062 79.269531 212 80.074219 211.671875 80.863281 C 211.347656 81.65625 210.980469 82.429688 210.578125 83.183594 C 210.171875 83.9375 209.734375 84.671875 209.257812 85.382812 C 208.78125 86.09375 208.273438 86.78125 207.730469 87.441406 C 207.1875 88.105469 206.613281 88.738281 206.007812 89.34375 C 205.402344 89.949219 204.769531 90.523438 204.109375 91.066406 C 203.445312 91.609375 202.757812 92.117188 202.046875 92.59375 C 201.335938 93.070312 200.601562 93.507812 199.847656 93.914062 C 199.09375 94.316406 198.320312 94.679688 197.527344 95.007812 C 196.738281 95.335938 195.933594 95.625 195.113281 95.871094 C 194.296875 96.121094 193.464844 96.328125 192.625 96.496094 C 191.785156 96.664062 190.941406 96.789062 190.089844 96.871094 C 189.238281 96.957031 188.382812 97 187.527344 97 C 186.671875 97 185.816406 96.957031 184.964844 96.871094 C 184.113281 96.789062 183.269531 96.664062 182.429688 96.496094 C 181.589844 96.328125 180.757812 96.121094 179.941406 95.871094 C 179.121094 95.625 178.316406 95.335938 177.527344 95.007812 C 176.734375 94.679688 175.960938 94.316406 175.207031 93.914062 C 174.453125 93.507812 173.71875 93.070312 173.007812 92.59375 C 172.296875 92.117188 171.609375 91.609375 170.945312 91.066406 C 170.285156 90.523438 169.652344 89.949219 169.046875 89.34375 C 168.441406 88.738281 167.867188 88.105469 167.324219 87.441406 C 166.78125 86.78125 166.273438 86.09375 165.796875 85.382812 C 165.320312 84.671875 164.882812 83.9375 164.476562 83.183594 C 164.074219 82.429688 163.707031 81.65625 163.382812 80.863281 C 163.054688 80.074219 162.765625 79.269531 162.515625 78.449219 C 162.269531 77.628906 162.0625 76.800781 161.894531 75.960938 C 161.726562 75.121094 161.601562 74.277344 161.515625 73.425781 C 161.433594 72.574219 161.390625 71.71875 161.390625 70.863281 C 161.390625 70.007812 161.433594 69.152344 161.515625 68.300781 C 161.601562 67.449219 161.726562 66.601562 161.894531 65.761719 C 162.0625 64.925781 162.269531 64.09375 162.515625 63.277344 C 162.765625 62.457031 163.054688 61.652344 163.382812 60.859375 C 163.707031 60.070312 164.074219 59.296875 164.476562 58.542969 C 164.882812 57.789062 165.320312 57.054688 165.796875 56.34375 C 166.273438 55.628906 166.78125 54.945312 167.324219 54.28125 C 167.867188 53.621094 168.441406 52.988281 169.046875 52.382812 C 169.652344 51.777344 170.285156 51.203125 170.945312 50.660156 C 171.609375 50.117188 172.296875 49.605469 173.007812 49.132812 C 173.71875 48.65625 174.453125 48.214844 175.207031 47.8125 C 175.960938 47.410156 176.734375 47.042969 177.527344 46.714844 C 178.316406 46.386719 179.121094 46.101562 179.941406 45.851562 C 180.757812 45.605469 181.589844 45.394531 182.429688 45.230469 C 183.269531 45.0625 184.113281 44.9375 184.964844 44.851562 C 185.816406 44.769531 186.671875 44.726562 187.527344 44.726562 C 188.382812 44.726562 189.238281 44.769531 190.089844 44.851562 C 190.941406 44.9375 191.785156 45.0625 192.625 45.230469 C 193.464844 45.394531 194.296875 45.605469 195.113281 45.851562 C 195.933594 46.101562 196.738281 46.386719 197.527344 46.714844 C 198.320312 47.042969 199.09375 47.410156 199.847656 47.8125 C 200.601562 48.214844 201.335938 48.65625 202.046875 49.132812 C 202.757812 49.605469 203.445312 50.117188 204.109375 50.660156 C 204.769531 51.203125 205.402344 51.777344 206.007812 52.382812 C 206.613281 52.988281 207.1875 53.621094 207.730469 54.28125 C 208.273438 54.945312 208.78125 55.628906 209.257812 56.34375 C 209.734375 57.054688 210.171875 57.789062 210.578125 58.542969 C 210.980469 59.296875 211.347656 60.070312 211.671875 60.859375 C 212 61.652344 212.289062 62.457031 212.539062 63.277344 C 212.785156 64.09375 212.992188 64.925781 213.160156 65.761719 C 213.328125 66.601562 213.453125 67.449219 213.539062 68.300781 C 213.621094 69.152344 213.664062 70.007812 213.664062 70.863281 Z M 213.664062 70.863281 " fill-opacity="1" fill-rule="nonzero"/></g><g clip-path="url(#ef319b0fcb)"><path fill="#8c52ff" d="M 295.757812 166.277344 L 295.757812 229.492188 L 252.179688 229.492188 L 252.179688 173.78125 C 252.179688 158.523438 246.613281 145.894531 230.609375 145.894531 C 214.601562 145.894531 209.285156 158.523438 209.285156 173.78125 L 165.707031 173.78125 C 165.707031 158.523438 160.390625 145.894531 144.382812 145.894531 C 128.378906 145.894531 122.8125 158.523438 122.8125 173.78125 L 122.8125 229.492188 L 79.230469 229.492188 L 79.230469 166.277344 C 79.230469 132.636719 99.367188 103.5625 141.007812 103.5625 C 163.765625 103.5625 180.273438 112.503906 187.777344 127.324219 C 195.78125 112.566406 213.226562 103.5625 234.046875 103.5625 C 275.6875 103.5 295.757812 132.574219 295.757812 166.277344 Z M 295.757812 166.277344 " fill-opacity="1" fill-rule="nonzero"/></g><g clip-path="url(#de9f131b20)"><path fill="#8c52ff" d="M 165.769531 186.285156 L 209.222656 186.285156 L 209.222656 229.429688 L 165.769531 229.429688 Z M 165.769531 186.285156 " fill-opacity="1" fill-rule="nonzero"/></g><g clip-path="url(#316cea98a3)"><g clip-path="url(#a588b571b6)"><g transform="matrix(1, 0, 0, 1, 252, 263)"><g clip-path="url(#df1ecd1875)"><g clip-path="url(#0435503eaa)"><g clip-path="url(#1b22a56165)"><path fill="#ff5757" d="M 43.761719 27.558594 L 0.0429688 27.558594 L 0.0429688 0.976562 L 43.761719 0.976562 Z M 43.761719 27.558594 " fill-opacity="1" fill-rule="nonzero"/></g></g></g></g></g></g><g clip-path="url(#ece4a71aff)"><g transform="matrix(1, 0, 0, 1, 252, 226)"><g clip-path="url(#d0b4cc1e16)"><g clip-path="url(#f76ca28a67)"><path fill="#ff5757" d="M 0.0742188 0.300781 L 43.703125 0.300781 L 43.703125 39.90625 L 0.0742188 39.90625 Z M 0.0742188 0.300781 " fill-opacity="1" fill-rule="nonzero"/></g></g></g></g><g clip-path="url(#36e2fcb1a6)"><g transform="matrix(1, 0, 0, 1, 165, 165)"><g clip-path="url(#eaba41d1f9)"><g clip-path="url(#12d66ba3dd)"><path fill="#8c52ff" d="M 0.652344 0.757812 L 44.695312 0.757812 L 44.695312 64.757812 L 0.652344 64.757812 Z M 0.652344 0.757812 " fill-opacity="1" fill-rule="nonzero"/></g></g></g></g><g clip-path="url(#db7225103a)"><g clip-path="url(#ade2058f25)"><g transform="matrix(1, 0, 0, 1, 147, 18)"><g clip-path="url(#8e04e3e36b)"><g clip-path="url(#8a270fee13)"><g clip-path="url(#9cbcc61b0d)"><path fill="#ffffff" d="M 0.210938 0.03125 L 81.914062 0.03125 L 81.914062 81.738281 L 0.210938 81.738281 Z M 0.210938 0.03125 " fill-opacity="1" fill-rule="nonzero"/></g></g></g></g></g></g><g clip-path="url(#274c504ffa)"><g clip-path="url(#071f94d2e9)"><g transform="matrix(1, 0, 0, 1, 165, 263)"><g clip-path="url(#8170a1988f)"><g clip-path="url(#c3e5cc5c96)"><g clip-path="url(#f549bdfad3)"><path fill="#ff5757" d="M 44.667969 27.558594 L 0.640625 27.558594 L 0.640625 0.976562 L 44.667969 0.976562 Z M 44.667969 27.558594 " fill-opacity="1" fill-rule="nonzero"/></g></g></g></g></g></g><g clip-path="url(#f4587ff572)"><g transform="matrix(1, 0, 0, 1, 165, 226)"><g clip-path="url(#f455c5fcbb)"><g clip-path="url(#1dbd639af6)"><path fill="#ff5757" d="M 0.640625 0.300781 L 44.734375 0.300781 L 44.734375 39.90625 L 0.640625 39.90625 Z M 0.640625 0.300781 " fill-opacity="1" fill-rule="nonzero"/></g></g></g></g><g clip-path="url(#9dbba203be)"><g clip-path="url(#3627ae2c70)"><g transform="matrix(1, 0, 0, 1, 173, 180)"><g clip-path="url(#ddac429fa1)"><g clip-path="url(#5703e55047)"><g clip-path="url(#e3d4f0e548)"><path fill="#ffffff" d="M 0.464844 0.144531 L 29.660156 0.144531 L 29.660156 92.402344 L 0.464844 92.402344 Z M 0.464844 0.144531 " fill-opacity="1" fill-rule="nonzero"/></g></g></g></g></g></g><g clip-path="url(#056f58be82)"><g clip-path="url(#aa992cce7d)"><g transform="matrix(1, 0, 0, 1, 79, 263)"><g clip-path="url(#68584f1d38)"><g clip-path="url(#78d7bfca8c)"><g clip-path="url(#ca573735f1)"><path fill="#ff5757" d="M 43.917969 27.558594 L 0.203125 27.558594 L 0.203125 0.976562 L 43.917969 0.976562 Z M 43.917969 27.558594 " fill-opacity="1" fill-rule="nonzero"/></g></g></g></g></g></g><g clip-path="url(#e4b199062e)"><g transform="matrix(1, 0, 0, 1, 79, 226)"><g clip-path="url(#dd79906d30)"><g clip-path="url(#f742b536f7)"><path fill="#ff5757" d="M 0.230469 0.300781 L 43.863281 0.300781 L 43.863281 39.90625 L 0.230469 39.90625 Z M 0.230469 0.300781 " fill-opacity="1" fill-rule="nonzero"/></g></g></g></g></svg>